#!OML:ASF F:\VICON\USERDATA\INSTALL\rory3\rory3.ASF
:FULLY-SPECIFIED
:DEGREES
1
root 0.41069490781999946 18.049291438209035 -29.325883014352428 -3.4547743179045862 -0.9963814739860184 -0.7637816445171255
lfemur -12.478696856664701 0.0032353312337081164 -23.031993966103318
ltibia 22.999205491830836
lfoot -4.779722397861904 -3.8768185109236937
ltoes -28.359276018373095
rfemur -13.58720026812026 -1.3730589757925191 22.79140656117643
rtibia 71.87848201336033
rfoot 4.370445483317506 -6.678694637423615
rtoes 2.5044796707516475
lowerback 12.601282523679211 1.0060646851635036 -0.43838087776292456
upperback 0.7028423376401081 1.3257565312471518 0.7980880161940487
thorax -6.361365872640888 0.6727129478477243 0.8514609597100034
lowerneck -16.81429624072249 -3.4824883780946427 -1.8858115008039351
upperneck 21.46949946284235 -4.571050462823156 0.9233516730868512
head 9.637298478619575 -2.1713785889874524 0.032206477700793185
lclavicle 2.9911143006703457e-16 5.531455621769163e-17
lhumerus -32.4498963046975 9.24840069043957 80.34690235130861
lradius 21.328208602053635
lwrist 5.319765701153827
lhand -25.309221635574985 20.92739609817862
lfingers 7.125020000000001
lthumb 1.2129283630211596 50.90369605897611
rclavicle 2.9911143006703457e-16 5.531455621769163e-17
rhumerus -25.99040745410727 -20.085800212858363 -79.56719335235418
rradius 25.46760575888904
rwrist 5.997784260098974
rhand -18.41379654432374 23.15189742941852
rfingers 7.125020000000001
rthumb 7.871013454547767 -6.681582497872471
2
root 0.45297959118653663 18.06659040087204 -28.700883281051063 -3.8201517350032974 -0.5581800493010458 -0.6461969793132813
lfemur -10.21589834966683 -0.21025863850301652 -23.4502933010913
ltibia 23.787305035260687
lfoot -6.736460273148478 -2.5556006072683233
ltoes -27.29497726039818
rfemur -18.14309700562506 -2.1807164620916737 22.71420668687602
rtibia 74.2483807500856
rfoot -0.03876989499262873 -8.659289234876244
rtoes -1.2459154003695705
lowerback 13.107376878514108 0.8303078555215824 -0.5967984770653765
upperback 0.6256542346564211 1.0627576220671027 0.7098521698610698
thorax -6.722718642531461 0.5483451096292382 0.8888208180583252
lowerneck -16.511499989942475 -3.351921574859058 -1.6222262080464562
upperneck 21.83329498258199 -4.4846516187895835 0.9632642680673341
head 9.702216517776355 -2.1051110977575007 0.016152248279504983
lclavicle 2.991114041799812e-16 5.5314560360102114e-17
lhumerus -30.862199037679627 7.961922898156244 80.09900343740954
lradius 21.325008608364325
lwrist 5.289695784731899
lhand -24.9954232325239 17.996601792094022
lfingers 7.125020000000001
lthumb 1.5160167658354426 47.970901744185355
rclavicle 2.991114041799812e-16 5.5314560360102114e-17
rhumerus -28.093104099944753 -22.8051955509734 -78.39339622793298
rradius 24.668707436364965
rwrist 6.1800437866195015
rhand -14.87822449794194 14.734132190140336
rfingers 7.125020000000001
rthumb 11.282175506637252 -14.942468252778605
3
root 0.48834848989236046 18.058990856580778 -28.06038355436366 -3.8760313399829753 0.5550669486245065 -0.47670846189409755
lfemur -7.9822298234489 -0.6808675438191996 -23.91259256612822
ltibia 24.122904840837485
lfoot -8.793608039405507 -1.696221970823713
ltoes -26.2365784955382
rfemur -22.366493981234235 -3.2967029887675148 22.681106740770524
rtibia 73.99148088702607
rfoot -3.038725742242808 -7.622962061707464
rtoes 1.7794006236717181
lowerback 12.950578627500253 0.3143192914699054 -1.1208151516305764
upperback 0.3839441750527782 0.320422700991431 0.9711037540459704
thorax -6.880655482459836 0.20934127643178588 1.6009691179141952
lowerneck -15.377014037135568 -3.18747560111247 -1.9320206755765863
upperneck 21.985093113138554 -4.163305918208697 0.8274256465117303
head 9.543441313566355 -2.005244878515985 0.08080085331111608
lclavicle 2.9911140113938493e-16 5.5314577620128676e-17
lhumerus -30.045300443847733 6.699665064309214 80.53450152939439
lradius 22.576506140298314
lwrist 6.04800367704697
lhand -25.05722291801962 23.20079168145033
lfingers 7.125020000000001
lthumb 1.4563170804350385 53.175491655110044
rclavicle 2.9911140113938493e-16 5.5314577620128676e-17
rhumerus -30.297100584191583 -23.06399510731089 -77.3699987350614
rradius 24.198508423658982
rwrist 5.75236489765703
rhand -14.646226332210365 11.707044690340089
rfingers 7.125020000000001
rthumb 11.505973673041833 -17.95715575554049
4
root 0.5192015292101293 18.01149370476039 -27.442683817947234 -3.794551915971806 1.6081731627535611 0.10221088976195292
lfemur -6.311520925788297 -0.8856456323503694 -24.779591187774365
ltibia 24.9965043347346
lfoot -10.80849585155028 -1.317462571792126
ltoes -21.61858388468802
rfemur -26.128291287396735 -3.888101148138194 22.186707545768936
rtibia 71.28628232903233
rfoot -7.364810619001665 -7.199993215456565
rtoes -2.6814035138091326
lowerback 13.043477591270577 0.06638594244869514 -1.6412338352964502
upperback 0.9487872931646757 -0.09761466514777395 0.8003999859654796
thorax -6.315736785608269 0.008944268439394998 1.7902184003665447
lowerneck -17.95808207837832 -3.247174139468636 -1.4631090496429908
upperneck 22.61798531886482 -4.275894411839946 0.5639663200078808
head 10.23728035622381 -2.026624069137629 -0.15456644764450606
lclavicle 2.9911142035643678e-16 5.531454337624606e-17
lhumerus -26.968805739570797 4.225909309506371 81.0728991705532
lradius 23.377604560459968
lwrist 8.173067770520612
lhand -25.131822538375296 18.646000530449193
lfingers 7.125020000000001
lthumb 1.3842274603258797 48.62130048339018
rclavicle 2.9911142035643678e-16 5.531454337624606e-17
rhumerus -30.616300075013537 -24.16779321505944 -77.3257988433427
rradius 24.36250807930291
rwrist 6.212743701670644
rhand -17.14790655294612 23.441996231470664
rfingers 7.125020000000001
rthumb 9.0926434456402 -6.3420139055373
